<svg width="28" height="28" viewBox="0 0 28 28" fill="none" xmlns="http://www.w3.org/2000/svg">
<path d="M10.3678 24.8889C11.3343 24.8889 12.1178 24.1054 12.1178 23.1389C12.1178 22.1724 11.3343 21.3889 10.3678 21.3889C9.4013 21.3889 8.6178 22.1724 8.6178 23.1389C8.6178 24.1054 9.4013 24.8889 10.3678 24.8889Z" fill="white" stroke="white" stroke-width="0.2"/>
<path d="M21 24.8889C21.9665 24.8889 22.75 24.1054 22.75 23.1389C22.75 22.1724 21.9665 21.3889 21 21.3889C20.0335 21.3889 19.25 22.1724 19.25 23.1389C19.25 24.1054 20.0335 24.8889 21 24.8889Z" fill="white" stroke="white" stroke-width="0.2"/>
<path d="M25.7289 4.17664C25.6565 4.08742 25.5653 4.01534 25.4617 3.96558C25.3582 3.91583 25.2449 3.88962 25.13 3.88886H8.93665L9.44221 5.44442H24.1111L22.0344 14.7778H10.3678L6.81332 3.52331C6.77487 3.40389 6.70811 3.29554 6.61872 3.20751C6.52933 3.11948 6.41998 3.05437 6.29998 3.01775L3.1111 2.03775C3.01304 2.00762 2.91001 1.9971 2.80789 2.00679C2.70577 2.01647 2.60656 2.04618 2.51592 2.09421C2.33286 2.1912 2.19584 2.35695 2.13498 2.55498C2.07413 2.753 2.09444 2.9671 2.19144 3.15015C2.28843 3.33321 2.45418 3.47023 2.65221 3.53109L5.44443 4.38664L9.01443 15.6644L7.73887 16.7066L7.63776 16.8078C7.32225 17.1714 7.14341 17.6336 7.13205 18.1149C7.12069 18.5962 7.27753 19.0663 7.57554 19.4444C7.78753 19.7022 8.05691 19.9068 8.36214 20.0419C8.66736 20.1769 8.99996 20.2387 9.33332 20.2222H22.3144C22.5207 20.2222 22.7185 20.1403 22.8644 19.9944C23.0103 19.8485 23.0922 19.6507 23.0922 19.4444C23.0922 19.2381 23.0103 19.0403 22.8644 18.8944C22.7185 18.7486 22.5207 18.6666 22.3144 18.6666H9.20887C9.11931 18.6636 9.03205 18.6375 8.95552 18.5908C8.87899 18.5442 8.81578 18.4786 8.77199 18.4005C8.7282 18.3223 8.70532 18.2341 8.70555 18.1445C8.70579 18.0549 8.72913 17.9668 8.77332 17.8889L10.6478 16.3333H22.6566C22.8364 16.3377 23.0122 16.2797 23.154 16.169C23.2958 16.0584 23.3949 15.9021 23.4344 15.7266L25.9 4.83775C25.9236 4.7218 25.9205 4.60198 25.8909 4.48741C25.8612 4.37285 25.8058 4.26656 25.7289 4.17664Z" fill="white" stroke="white" stroke-width="0.2"/>
</svg>
