<svg width="62" height="62" viewBox="0 0 62 62" fill="none" xmlns="http://www.w3.org/2000/svg">
<path d="M31 5.16669C21.0025 5.16669 12.9167 13.2525 12.9167 23.25C12.9167 36.8125 31 56.8334 31 56.8334C31 56.8334 49.0833 36.8125 49.0833 23.25C49.0833 13.2525 40.9975 5.16669 31 5.16669ZM31 29.7084C29.2871 29.7084 27.6444 29.0279 26.4333 27.8168C25.2221 26.6056 24.5417 24.9629 24.5417 23.25C24.5417 21.5372 25.2221 19.8945 26.4333 18.6833C27.6444 17.4721 29.2871 16.7917 31 16.7917C32.7129 16.7917 34.3556 17.4721 35.5667 18.6833C36.7779 19.8945 37.4583 21.5372 37.4583 23.25C37.4583 24.9629 36.7779 26.6056 35.5667 27.8168C34.3556 29.0279 32.7129 29.7084 31 29.7084Z" fill="url(#paint0_radial_104_165)"/>
<defs>
<radialGradient id="paint0_radial_104_165" cx="0" cy="0" r="1" gradientUnits="userSpaceOnUse" gradientTransform="translate(31 31) rotate(90) scale(25.8333 18.0833)">
<stop stop-color="#009846"/>
<stop offset="1" stop-color="#0B6F39"/>
</radialGradient>
</defs>
</svg>
