<svg width="18" height="18" viewBox="0 0 18 18" fill="none" xmlns="http://www.w3.org/2000/svg">
<g clip-path="url(#clip0_182_2637)">
<path d="M8.15 10.2601H1.35V15.3601C1.35 15.8109 1.52911 16.2433 1.84792 16.5621C2.16673 16.881 2.59913 17.0601 3.05 17.0601H14.95C15.4009 17.0601 15.8333 16.881 16.1521 16.5621C16.4709 16.2433 16.65 15.8109 16.65 15.3601V10.2601H9.85V11.9601H8.15V10.2601ZM8.15 9.41006H0.5V4.31006C0.5 3.37506 1.265 2.61006 2.2 2.61006H5.6V1.76006C5.6 1.30919 5.77911 0.876789 6.09792 0.557977C6.41673 0.239165 6.84913 0.0600586 7.3 0.0600586L10.7 0.0600586C11.1509 0.0600586 11.5833 0.239165 11.9021 0.557977C12.2209 0.876789 12.4 1.30919 12.4 1.76006V2.61006H15.8C16.2509 2.61006 16.6833 2.78917 17.0021 3.10798C17.3209 3.42679 17.5 3.85919 17.5 4.31006V9.41006H9.85V7.71006H8.15V9.41006ZM10.7 2.61006V1.76006H7.3V2.61006H10.7Z" fill="url(#paint0_radial_182_2637)"/>
</g>
<defs>
<radialGradient id="paint0_radial_182_2637" cx="0" cy="0" r="1" gradientUnits="userSpaceOnUse" gradientTransform="translate(9 8.56006) rotate(90) scale(8.5)">
<stop stop-color="#FFF686"/>
<stop offset="1" stop-color="#FFED00"/>
</radialGradient>
<clipPath id="clip0_182_2637">
<rect width="17" height="17" fill="white" transform="translate(0.5 0.0600586)"/>
</clipPath>
</defs>
</svg>
