<svg width="29" height="29" viewBox="0 0 29 29" fill="none" xmlns="http://www.w3.org/2000/svg">
<path d="M26.1395 8.03164C25.7599 7.15269 25.2126 6.35619 24.5281 5.68673C23.8432 5.01528 23.0355 4.48168 22.1492 4.11496C21.2302 3.73318 20.2444 3.53777 19.2492 3.54006C17.8531 3.54006 16.4909 3.92238 15.3071 4.64455C15.0239 4.8173 14.7548 5.00705 14.4999 5.21378C14.2451 5.00705 13.976 4.8173 13.6928 4.64455C12.509 3.92238 11.1468 3.54006 9.75065 3.54006C8.74529 3.54006 7.77107 3.73264 6.85066 4.11496C5.96141 4.48312 5.15995 5.01271 4.47177 5.68673C3.78641 6.35543 3.23893 7.15212 2.86035 8.03164C2.4667 8.94638 2.26562 9.91777 2.26562 10.9175C2.26562 11.8605 2.4582 12.8432 2.84053 13.8429C3.16054 14.6784 3.61933 15.545 4.20556 16.4201C5.13446 17.8049 6.4117 19.2493 7.99763 20.7134C10.6257 23.1405 13.2284 24.817 13.3388 24.885L14.01 25.3155C14.3074 25.5052 14.6897 25.5052 14.9871 25.3155L15.6582 24.885C15.7687 24.8142 18.3685 23.1405 20.9994 20.7134C22.5854 19.2493 23.8626 17.8049 24.7915 16.4201C25.3777 15.545 25.8394 14.6784 26.1565 13.8429C26.5389 12.8432 26.7314 11.8605 26.7314 10.9175C26.7343 9.91777 26.5332 8.94638 26.1395 8.03164ZM14.4999 23.0753C14.4999 23.0753 4.41796 16.6155 4.41796 10.9175C4.41796 8.03164 6.80535 5.69239 9.75065 5.69239C11.8209 5.69239 13.6164 6.84786 14.4999 8.53574C15.3835 6.84786 17.179 5.69239 19.2492 5.69239C22.1945 5.69239 24.5819 8.03164 24.5819 10.9175C24.5819 16.6155 14.4999 23.0753 14.4999 23.0753Z" fill="white"/>
</svg>
