<svg width="25" height="24" viewBox="0 0 25 24" fill="none" xmlns="http://www.w3.org/2000/svg">
<path d="M9.38666 23.3333C10.2151 23.3333 10.8867 22.6617 10.8867 21.8333C10.8867 21.0048 10.2151 20.3333 9.38666 20.3333C8.55823 20.3333 7.88666 21.0048 7.88666 21.8333C7.88666 22.6617 8.55823 23.3333 9.38666 23.3333Z" fill="#FFED00"/>
<path d="M18.5 23.3333C19.3284 23.3333 20 22.6617 20 21.8333C20 21.0048 19.3284 20.3333 18.5 20.3333C17.6716 20.3333 17 21.0048 17 21.8333C17 22.6617 17.6716 23.3333 18.5 23.3333Z" fill="#FFED00"/>
<path d="M22.5533 5.57991C22.4913 5.50343 22.4131 5.44165 22.3243 5.399C22.2356 5.35635 22.1385 5.33389 22.04 5.33324H8.16001L8.59335 6.66658H21.1667L19.3867 14.6666H9.38668L6.34001 5.01991C6.30706 4.91755 6.24983 4.82468 6.17321 4.74922C6.0966 4.67377 6.00286 4.61796 5.90001 4.58658L3.16668 3.74658C3.08263 3.72075 2.99432 3.71173 2.90679 3.72003C2.81926 3.72833 2.73422 3.7538 2.65653 3.79496C2.49962 3.87811 2.38217 4.02017 2.33001 4.18991C2.27785 4.35965 2.29526 4.54316 2.3784 4.70006C2.46154 4.85697 2.60361 4.97442 2.77335 5.02658L5.16668 5.75991L8.22668 15.4266L7.13335 16.3199L7.04668 16.4066C6.77624 16.7182 6.62295 17.1145 6.61321 17.527C6.60348 17.9395 6.73791 18.3425 6.99335 18.6666C7.17505 18.8875 7.40595 19.0629 7.66757 19.1787C7.92919 19.2945 8.21427 19.3474 8.50001 19.3332H19.6267C19.8035 19.3332 19.9731 19.263 20.0981 19.138C20.2231 19.013 20.2933 18.8434 20.2933 18.6666C20.2933 18.4898 20.2231 18.3202 20.0981 18.1952C19.9731 18.0701 19.8035 17.9999 19.6267 17.9999H8.39335C8.31658 17.9973 8.24178 17.9749 8.17618 17.9349C8.11059 17.895 8.05641 17.8388 8.01888 17.7717C7.98134 17.7047 7.96173 17.6292 7.96193 17.5523C7.96213 17.4755 7.98213 17.4001 8.02001 17.3332L9.62668 15.9999H19.92C20.0741 16.0037 20.2248 15.9539 20.3463 15.8591C20.4679 15.7643 20.5528 15.6303 20.5867 15.4799L22.7 6.14658C22.7203 6.04719 22.7176 5.94448 22.6922 5.84629C22.6668 5.74809 22.6193 5.65698 22.5533 5.57991Z" fill="#FFED00"/>
</svg>
