<svg width="20" height="20" viewBox="0 0 20 20" fill="none" xmlns="http://www.w3.org/2000/svg">
<path d="M16.6667 6.66659L10 10.8333L3.33335 6.66659V4.99992L10 9.16658L16.6667 4.99992V6.66659ZM16.6667 3.33325H3.33335C2.40835 3.33325 1.66669 4.07492 1.66669 4.99992V14.9999C1.66669 15.4419 1.84228 15.8659 2.15484 16.1784C2.4674 16.491 2.89133 16.6666 3.33335 16.6666H16.6667C17.1087 16.6666 17.5326 16.491 17.8452 16.1784C18.1578 15.8659 18.3334 15.4419 18.3334 14.9999V4.99992C18.3334 4.55789 18.1578 4.13397 17.8452 3.82141C17.5326 3.50885 17.1087 3.33325 16.6667 3.33325Z" fill="#FFED00"/>
</svg>
