<svg width="36" height="36" viewBox="0 0 36 36" fill="none" xmlns="http://www.w3.org/2000/svg">
<path d="M19.41 18.117L26.7 11.0295C26.8638 10.8435 26.9494 10.6043 26.9397 10.3596C26.93 10.1149 26.8256 9.88279 26.6475 9.70964C26.4694 9.53649 26.2307 9.43506 25.979 9.42561C25.7274 9.41616 25.4813 9.49939 25.29 9.65866L18 16.7462L10.71 9.64894C10.5187 9.48966 10.2726 9.40644 10.0209 9.41589C9.76924 9.42534 9.53051 9.52677 9.35241 9.69992C9.17432 9.87307 9.06998 10.1052 9.06026 10.3499C9.05054 10.5945 9.13615 10.8338 9.29997 11.0198L16.59 18.117L9.28997 25.2045C9.18529 25.2917 9.10027 25.3989 9.04025 25.5195C8.98022 25.6401 8.94649 25.7715 8.94117 25.9054C8.93586 26.0393 8.95906 26.1728 9.00934 26.2976C9.05961 26.4224 9.13587 26.5357 9.23332 26.6304C9.33078 26.7252 9.44733 26.7993 9.57565 26.8482C9.70398 26.8971 9.84131 26.9196 9.97903 26.9144C10.1167 26.9093 10.2519 26.8765 10.3759 26.8181C10.5 26.7598 10.6103 26.6771 10.7 26.5753L18 19.4878L25.29 26.5753C25.4813 26.7346 25.7274 26.8178 25.979 26.8084C26.2307 26.7989 26.4694 26.6975 26.6475 26.5244C26.8256 26.3512 26.93 26.1191 26.9397 25.8744C26.9494 25.6297 26.8638 25.3905 26.7 25.2045L19.41 18.117Z" fill="#09773B"/>
</svg>
