<svg width="30" height="30" viewBox="0 0 30 30" fill="none" xmlns="http://www.w3.org/2000/svg">
<path d="M27.0411 8.30861C26.6484 7.39935 26.0822 6.57538 25.3741 5.88283C24.6655 5.18822 23.8301 4.63622 22.9132 4.25686C21.9625 3.86191 20.9427 3.65976 19.9132 3.66213C18.4689 3.66213 17.0597 4.05764 15.8351 4.80471C15.5421 4.98342 15.2638 5.17971 15.0001 5.39358C14.7365 5.17971 14.4581 4.98342 14.1652 4.80471C12.9406 4.05764 11.5314 3.66213 10.087 3.66213C9.047 3.66213 8.03918 3.86135 7.08704 4.25686C6.16711 4.63772 5.33801 5.18557 4.6261 5.88283C3.9171 6.5746 3.35074 7.39876 2.95911 8.30861C2.55188 9.2549 2.34387 10.2598 2.34387 11.294C2.34387 12.2696 2.54309 13.2862 2.9386 14.3203C3.26965 15.1846 3.74426 16.0811 4.35071 16.9863C5.31165 18.419 6.63293 19.9131 8.27356 21.4278C10.9923 23.9385 13.6847 25.6729 13.799 25.7432L14.4933 26.1885C14.8009 26.3848 15.1964 26.3848 15.504 26.1885L16.1984 25.7432C16.3126 25.6699 19.0021 23.9385 21.7238 21.4278C23.3644 19.9131 24.6857 18.419 25.6466 16.9863C26.2531 16.0811 26.7306 15.1846 27.0587 14.3203C27.4542 13.2862 27.6534 12.2696 27.6534 11.294C27.6564 10.2598 27.4484 9.2549 27.0411 8.30861V8.30861Z" fill="url(#paint0_radial_270_2417)"/>
<defs>
<radialGradient id="paint0_radial_270_2417" cx="0" cy="0" r="1" gradientUnits="userSpaceOnUse" gradientTransform="translate(14.9987 14.9989) rotate(90) scale(11.3368 12.6548)">
<stop stop-color="#009846"/>
<stop offset="1" stop-color="#0B6F39"/>
</radialGradient>
</defs>
</svg>
