<svg width="34" height="35" viewBox="0 0 34 35" fill="none" xmlns="http://www.w3.org/2000/svg">
<g opacity="0.5">
<path d="M28.3754 9.63046L21.2301 2.48514C21.0309 2.28593 20.7619 2.17303 20.4797 2.17303H6.375C5.7873 2.17303 5.3125 2.64784 5.3125 3.23553V30.8605C5.3125 31.4482 5.7873 31.923 6.375 31.923H27.625C28.2127 31.923 28.6875 31.4482 28.6875 30.8605V10.3842C28.6875 10.1019 28.5746 9.82968 28.3754 9.63046ZM26.2371 10.8723H19.9883V4.62343L26.2371 10.8723ZM26.2969 29.5324H7.70312V4.56366H17.7305V11.7355C17.7305 12.1054 17.8774 12.4601 18.1389 12.7216C18.4004 12.9831 18.7551 13.1301 19.125 13.1301H26.2969V29.5324ZM18.0625 15.7199C18.0625 15.5738 17.943 15.4543 17.7969 15.4543H16.2031C16.057 15.4543 15.9375 15.5738 15.9375 15.7199V19.3058H12.3516C12.2055 19.3058 12.0859 19.4254 12.0859 19.5715V21.1652C12.0859 21.3113 12.2055 21.4308 12.3516 21.4308H15.9375V25.0168C15.9375 25.1629 16.057 25.2824 16.2031 25.2824H17.7969C17.943 25.2824 18.0625 25.1629 18.0625 25.0168V21.4308H21.6484C21.7945 21.4308 21.9141 21.3113 21.9141 21.1652V19.5715C21.9141 19.4254 21.7945 19.3058 21.6484 19.3058H18.0625V15.7199Z" fill="black"/>
</g>
</svg>
