<svg width="17" height="17" viewBox="0 0 17 17" fill="none" xmlns="http://www.w3.org/2000/svg">
<g clip-path="url(#clip0_27_245)">
<path d="M9.74667 9.81288C10.7467 8.82713 11.5187 7.63439 12.0086 6.31844L10.5919 4.53816C10.5556 4.48538 10.5361 4.4228 10.5361 4.35872C10.5361 4.29463 10.5556 4.23205 10.5919 4.17927L12.7217 0.873714C12.7971 0.748222 12.9007 0.641992 13.0243 0.563414C13.1478 0.484838 13.288 0.436065 13.4336 0.420951C13.5792 0.405837 13.7264 0.424796 13.8635 0.476329C14.0005 0.52786 14.1237 0.610556 14.2233 0.717882L15.7533 2.26677C15.9725 2.48859 16.1333 2.76121 16.2215 3.06032C16.3097 3.35943 16.3224 3.67571 16.2586 3.98094C15.6298 7.02573 14.157 9.83218 12.0086 12.0795C9.83887 14.277 7.07807 15.7977 4.06111 16.457C3.76061 16.5222 3.44837 16.5086 3.15467 16.4176C2.86096 16.3266 2.59575 16.1612 2.38472 15.9376L0.835832 14.332C0.733732 14.2327 0.655431 14.1115 0.606794 13.9776C0.558156 13.8437 0.540442 13.7005 0.554977 13.5588C0.569513 13.4171 0.615921 13.2805 0.690728 13.1593C0.765534 13.038 0.8668 12.9353 0.986943 12.8587L4.25 10.6582C4.30124 10.6202 4.36332 10.5997 4.42708 10.5997C4.49085 10.5997 4.55293 10.6202 4.60417 10.6582L6.34667 12.1079C7.63628 11.6047 8.7977 10.8207 9.74667 9.81288Z" fill="#FFED00"/>
</g>
<defs>
<clipPath id="clip0_27_245">
<rect width="17" height="17" fill="white" transform="translate(0 17) rotate(-90)"/>
</clipPath>
</defs>
</svg>
